<mxfile host="Electron" agent="Mozilla/5.0 (Windows NT 10.0; Win64; x64) AppleWebKit/537.36 (KHTML, like Gecko) draw.io/25.0.2 Chrome/128.0.6613.186 Electron/32.2.5 Safari/537.36" version="25.0.2">
  <diagram id="C5RBs43oDa-KdzZeNtuy" name="Page-1">
    <mxGraphModel dx="1036" dy="702" grid="1" gridSize="10" guides="1" tooltips="1" connect="1" arrows="1" fold="1" page="1" pageScale="1" pageWidth="827" pageHeight="1169" math="0" shadow="0">
      <root>
        <mxCell id="WIyWlLk6GJQsqaUBKTNV-0" />
        <mxCell id="WIyWlLk6GJQsqaUBKTNV-1" parent="WIyWlLk6GJQsqaUBKTNV-0" />
        <mxCell id="B2VOTwWJ7asvZiV1slHL-18" value="" style="edgeStyle=orthogonalEdgeStyle;rounded=0;orthogonalLoop=1;jettySize=auto;html=1;" edge="1" parent="WIyWlLk6GJQsqaUBKTNV-1" source="B2VOTwWJ7asvZiV1slHL-0" target="B2VOTwWJ7asvZiV1slHL-2">
          <mxGeometry relative="1" as="geometry" />
        </mxCell>
        <mxCell id="B2VOTwWJ7asvZiV1slHL-0" value="start" style="ellipse;whiteSpace=wrap;html=1;" vertex="1" parent="WIyWlLk6GJQsqaUBKTNV-1">
          <mxGeometry x="190" y="150" width="120" height="80" as="geometry" />
        </mxCell>
        <mxCell id="B2VOTwWJ7asvZiV1slHL-1" value="end" style="ellipse;whiteSpace=wrap;html=1;" vertex="1" parent="WIyWlLk6GJQsqaUBKTNV-1">
          <mxGeometry x="294" y="380" width="120" height="80" as="geometry" />
        </mxCell>
        <mxCell id="B2VOTwWJ7asvZiV1slHL-17" value="" style="edgeStyle=orthogonalEdgeStyle;rounded=0;orthogonalLoop=1;jettySize=auto;html=1;" edge="1" parent="WIyWlLk6GJQsqaUBKTNV-1" source="B2VOTwWJ7asvZiV1slHL-2" target="B2VOTwWJ7asvZiV1slHL-3">
          <mxGeometry relative="1" as="geometry" />
        </mxCell>
        <mxCell id="B2VOTwWJ7asvZiV1slHL-2" value="input a" style="shape=parallelogram;perimeter=parallelogramPerimeter;whiteSpace=wrap;html=1;fixedSize=1;" vertex="1" parent="WIyWlLk6GJQsqaUBKTNV-1">
          <mxGeometry x="370" y="160" width="120" height="60" as="geometry" />
        </mxCell>
        <mxCell id="B2VOTwWJ7asvZiV1slHL-8" style="edgeStyle=orthogonalEdgeStyle;rounded=0;orthogonalLoop=1;jettySize=auto;html=1;exitX=0;exitY=0.5;exitDx=0;exitDy=0;entryX=1;entryY=0.5;entryDx=0;entryDy=0;" edge="1" parent="WIyWlLk6GJQsqaUBKTNV-1" source="B2VOTwWJ7asvZiV1slHL-3" target="B2VOTwWJ7asvZiV1slHL-7">
          <mxGeometry relative="1" as="geometry" />
        </mxCell>
        <mxCell id="B2VOTwWJ7asvZiV1slHL-20" style="edgeStyle=orthogonalEdgeStyle;rounded=0;orthogonalLoop=1;jettySize=auto;html=1;exitX=1;exitY=0.5;exitDx=0;exitDy=0;entryX=1;entryY=0.5;entryDx=0;entryDy=0;" edge="1" parent="WIyWlLk6GJQsqaUBKTNV-1" source="B2VOTwWJ7asvZiV1slHL-3" target="B2VOTwWJ7asvZiV1slHL-2">
          <mxGeometry relative="1" as="geometry">
            <mxPoint x="629" y="160" as="targetPoint" />
            <mxPoint x="479" y="270" as="sourcePoint" />
            <Array as="points">
              <mxPoint x="540" y="328" />
              <mxPoint x="540" y="190" />
            </Array>
          </mxGeometry>
        </mxCell>
        <mxCell id="B2VOTwWJ7asvZiV1slHL-3" value="a&amp;gt;2?" style="rhombus;whiteSpace=wrap;html=1;" vertex="1" parent="WIyWlLk6GJQsqaUBKTNV-1">
          <mxGeometry x="340" y="288" width="80" height="80" as="geometry" />
        </mxCell>
        <mxCell id="B2VOTwWJ7asvZiV1slHL-5" value="fulse" style="text;html=1;align=center;verticalAlign=middle;resizable=0;points=[];autosize=1;strokeColor=none;fillColor=none;" vertex="1" parent="WIyWlLk6GJQsqaUBKTNV-1">
          <mxGeometry x="414" y="300" width="50" height="30" as="geometry" />
        </mxCell>
        <mxCell id="B2VOTwWJ7asvZiV1slHL-6" value="true" style="text;html=1;align=center;verticalAlign=middle;resizable=0;points=[];autosize=1;strokeColor=none;fillColor=none;" vertex="1" parent="WIyWlLk6GJQsqaUBKTNV-1">
          <mxGeometry x="310" y="300" width="40" height="30" as="geometry" />
        </mxCell>
        <mxCell id="B2VOTwWJ7asvZiV1slHL-10" value="" style="edgeStyle=orthogonalEdgeStyle;rounded=0;orthogonalLoop=1;jettySize=auto;html=1;" edge="1" parent="WIyWlLk6GJQsqaUBKTNV-1" source="B2VOTwWJ7asvZiV1slHL-7" target="B2VOTwWJ7asvZiV1slHL-9">
          <mxGeometry relative="1" as="geometry" />
        </mxCell>
        <mxCell id="B2VOTwWJ7asvZiV1slHL-7" value="b=1;b&amp;lt;=sqrt(a);b++" style="rounded=0;whiteSpace=wrap;html=1;" vertex="1" parent="WIyWlLk6GJQsqaUBKTNV-1">
          <mxGeometry x="160" y="260" width="120" height="60" as="geometry" />
        </mxCell>
        <mxCell id="B2VOTwWJ7asvZiV1slHL-12" value="" style="edgeStyle=orthogonalEdgeStyle;rounded=0;orthogonalLoop=1;jettySize=auto;html=1;" edge="1" parent="WIyWlLk6GJQsqaUBKTNV-1" source="B2VOTwWJ7asvZiV1slHL-9" target="B2VOTwWJ7asvZiV1slHL-11">
          <mxGeometry relative="1" as="geometry" />
        </mxCell>
        <mxCell id="B2VOTwWJ7asvZiV1slHL-14" style="edgeStyle=orthogonalEdgeStyle;rounded=0;orthogonalLoop=1;jettySize=auto;html=1;exitX=0;exitY=0.5;exitDx=0;exitDy=0;entryX=0;entryY=0.5;entryDx=0;entryDy=0;" edge="1" parent="WIyWlLk6GJQsqaUBKTNV-1" source="B2VOTwWJ7asvZiV1slHL-9" target="B2VOTwWJ7asvZiV1slHL-7">
          <mxGeometry relative="1" as="geometry">
            <Array as="points">
              <mxPoint x="100" y="430" />
              <mxPoint x="100" y="290" />
            </Array>
          </mxGeometry>
        </mxCell>
        <mxCell id="B2VOTwWJ7asvZiV1slHL-9" value="a%b!=0" style="rhombus;whiteSpace=wrap;html=1;rounded=0;" vertex="1" parent="WIyWlLk6GJQsqaUBKTNV-1">
          <mxGeometry x="180" y="390" width="80" height="80" as="geometry" />
        </mxCell>
        <mxCell id="B2VOTwWJ7asvZiV1slHL-16" style="edgeStyle=orthogonalEdgeStyle;rounded=0;orthogonalLoop=1;jettySize=auto;html=1;exitX=1;exitY=0.5;exitDx=0;exitDy=0;exitPerimeter=0;entryX=0;entryY=0.5;entryDx=0;entryDy=0;" edge="1" parent="WIyWlLk6GJQsqaUBKTNV-1" source="B2VOTwWJ7asvZiV1slHL-11" target="B2VOTwWJ7asvZiV1slHL-1">
          <mxGeometry relative="1" as="geometry" />
        </mxCell>
        <mxCell id="B2VOTwWJ7asvZiV1slHL-11" value="số a là số nguyên tố" style="strokeWidth=2;html=1;shape=mxgraph.flowchart.display;whiteSpace=wrap;" vertex="1" parent="WIyWlLk6GJQsqaUBKTNV-1">
          <mxGeometry x="170" y="510" width="100" height="60" as="geometry" />
        </mxCell>
        <mxCell id="B2VOTwWJ7asvZiV1slHL-13" value="true" style="text;html=1;align=center;verticalAlign=middle;resizable=0;points=[];autosize=1;strokeColor=none;fillColor=none;" vertex="1" parent="WIyWlLk6GJQsqaUBKTNV-1">
          <mxGeometry x="180" y="470" width="40" height="30" as="geometry" />
        </mxCell>
        <mxCell id="B2VOTwWJ7asvZiV1slHL-15" value="fulse" style="text;html=1;align=center;verticalAlign=middle;resizable=0;points=[];autosize=1;strokeColor=none;fillColor=none;" vertex="1" parent="WIyWlLk6GJQsqaUBKTNV-1">
          <mxGeometry x="130" y="400" width="50" height="30" as="geometry" />
        </mxCell>
      </root>
    </mxGraphModel>
  </diagram>
</mxfile>
